<svg xmlns="http://www.w3.org/2000/svg" viewBox="0 0 240 240" role="img" aria-labelledby="title desc">
  <title>Binance Pay QR</title>
  <desc>Static placeholder QR code for Binance Pay checkout.</desc>
  <rect width="240" height="240" rx="24" fill="#111827"/>
  <rect x="24" y="24" width="56" height="56" rx="8" fill="#F0B90B"/>
  <rect x="160" y="24" width="56" height="56" rx="8" fill="#F0B90B"/>
  <rect x="24" y="160" width="56" height="56" rx="8" fill="#F0B90B"/>
  <rect x="102" y="24" width="18" height="18" fill="#F0B90B"/>
  <rect x="120" y="42" width="18" height="18" fill="#F0B90B"/>
  <rect x="138" y="60" width="18" height="18" fill="#F0B90B"/>
  <rect x="102" y="96" width="18" height="18" fill="#F0B90B"/>
  <rect x="138" y="96" width="18" height="18" fill="#F0B90B"/>
  <rect x="84" y="114" width="18" height="18" fill="#F0B90B"/>
  <rect x="120" y="114" width="18" height="18" fill="#F0B90B"/>
  <rect x="156" y="114" width="18" height="18" fill="#F0B90B"/>
  <rect x="102" y="132" width="18" height="18" fill="#F0B90B"/>
  <rect x="138" y="132" width="18" height="18" fill="#F0B90B"/>
  <rect x="84" y="150" width="18" height="18" fill="#F0B90B"/>
  <rect x="120" y="150" width="18" height="18" fill="#F0B90B"/>
  <rect x="156" y="150" width="18" height="18" fill="#F0B90B"/>
  <rect x="102" y="168" width="18" height="18" fill="#F0B90B"/>
  <rect x="138" y="186" width="18" height="18" fill="#F0B90B"/>
</svg>
