<svg xmlns="http://www.w3.org/2000/svg" width="1200" height="675" viewBox="0 0 1200 675">
  <defs>
    <linearGradient id="bg" x1="0%" y1="0%" x2="100%" y2="100%">
      <stop offset="0%" style="stop-color:#1a1a2e"/>
      <stop offset="100%" style="stop-color:#16213e"/>
    </linearGradient>
    <linearGradient id="accent" x1="0%" y1="0%" x2="100%" y2="0%">
      <stop offset="0%" style="stop-color:#6366f1"/>
      <stop offset="100%" style="stop-color:#3b82f6"/>
    </linearGradient>
  </defs>
  <rect width="1200" height="675" fill="url(#bg)"/>
  <!-- Top bar -->
  <rect x="0" y="0" width="1200" height="48" fill="#0f0f23" opacity="0.8"/>
  <circle cx="24" cy="24" r="10" fill="#6366f1"/>
  <rect x="48" y="18" width="80" height="12" rx="6" fill="#334155"/>
  <!-- Sidebar -->
  <rect x="0" y="48" width="200" height="627" fill="#0f0f23" opacity="0.6"/>
  <rect x="16" y="72" width="168" height="32" rx="8" fill="#6366f1" opacity="0.3"/>
  <rect x="16" y="120" width="140" height="24" rx="6" fill="#1e293b"/>
  <rect x="16" y="156" width="150" height="24" rx="6" fill="#1e293b"/>
  <rect x="16" y="192" width="130" height="24" rx="6" fill="#1e293b"/>
  <rect x="16" y="228" width="145" height="24" rx="6" fill="#1e293b"/>
  <!-- Main content -->
  <rect x="224" y="72" width="952" height="48" rx="12" fill="#1e293b"/>
  <!-- Cards row -->
  <rect x="224" y="144" width="300" height="120" rx="16" fill="#1e293b"/>
  <rect x="248" y="168" width="120" height="16" rx="8" fill="#475569"/>
  <rect x="248" y="200" width="180" height="28" rx="6" fill="url(#accent)"/>
  <rect x="548" y="144" width="300" height="120" rx="16" fill="#1e293b"/>
  <rect x="572" y="168" width="100" height="16" rx="8" fill="#475569"/>
  <rect x="572" y="200" width="160" height="28" rx="6" fill="#22c55e"/>
  <rect x="872" y="144" width="304" height="120" rx="16" fill="#1e293b"/>
  <rect x="896" y="168" width="130" height="16" rx="8" fill="#475569"/>
  <rect x="896" y="200" width="140" height="28" rx="6" fill="#f59e0b"/>
  <!-- Chart area -->
  <rect x="224" y="288" width="624" height="360" rx="16" fill="#1e293b"/>
  <rect x="248" y="312" width="160" height="20" rx="10" fill="#475569"/>
  <!-- Chart bars -->
  <rect x="248" y="560" width="40" height="64" rx="4" fill="#6366f1"/>
  <rect x="304" y="520" width="40" height="104" rx="4" fill="#6366f1"/>
  <rect x="360" y="480" width="40" height="144" rx="4" fill="#6366f1"/>
  <rect x="416" y="440" width="40" height="184" rx="4" fill="#6366f1"/>
  <rect x="472" y="500" width="40" height="124" rx="4" fill="#6366f1"/>
  <rect x="528" y="460" width="40" height="164" rx="4" fill="#6366f1"/>
  <rect x="584" y="420" width="40" height="204" rx="4" fill="#6366f1"/>
  <rect x="640" y="480" width="40" height="144" rx="4" fill="#6366f1"/>
  <rect x="696" y="540" width="40" height="84" rx="4" fill="#6366f1"/>
  <rect x="752" y="500" width="40" height="124" rx="4" fill="#6366f1"/>
  <!-- Side panel -->
  <rect x="872" y="288" width="304" height="360" rx="16" fill="#1e293b"/>
  <rect x="896" y="312" width="140" height="20" rx="10" fill="#475569"/>
  <rect x="896" y="352" width="256" height="40" rx="8" fill="#0f0f23"/>
  <rect x="896" y="408" width="256" height="40" rx="8" fill="#0f0f23"/>
  <rect x="896" y="464" width="256" height="40" rx="8" fill="#0f0f23"/>
  <rect x="896" y="520" width="256" height="40" rx="8" fill="#0f0f23"/>
  <rect x="896" y="576" width="256" height="40" rx="8" fill="#0f0f23"/>
  <!-- Watermark text -->
  <text x="600" y="360" text-anchor="middle" fill="#334155" font-family="system-ui" font-size="24" font-weight="600" opacity="0.5">FinTec Dashboard Preview</text>
</svg>
